HIERARCHY
ROOT Hips
{
	OFFSET 0.000000 100.481300 0.000000
	CHANNELS 6 Xposition Yposition Zposition Xrotation Yrotation Zrotation
	JOINT Spine
	{
		OFFSET -0.279200 12.230698 -2.892100
		CHANNELS 3 Xrotation Yrotation Zrotation
		JOINT Spine1
		{
			OFFSET -0.325700 14.269203 -3.374200
			CHANNELS 3 Xrotation Yrotation Zrotation
			JOINT Spine2
			{
				OFFSET -0.372300 16.307602 -0.352600
				CHANNELS 3 Xrotation Yrotation Zrotation
				JOINT Neck
				{
					OFFSET -0.418800 17.814194 8.416900
					CHANNELS 3 Xrotation Yrotation Zrotation
					JOINT Head
					{
						OFFSET 0.000000 7.031097 3.806800
						CHANNELS 3 Xrotation Yrotation Zrotation
						JOINT HeadTop_End
						{
							OFFSET 0.000000 24.646606 12.978600
							CHANNELS 3 Xrotation Yrotation Zrotation
							End Site
							{
								OFFSET 0.000000 27.854965 0.000000
							}
						}
					}
				}
				JOINT LeftShoulder
				{
					OFFSET 16.952999 14.495407 -7.737500
					CHANNELS 3 Xrotation Yrotation Zrotation
					JOINT LeftArm
					{
						OFFSET 9.308998 -2.777710 0.208600
						CHANNELS 3 Xrotation Yrotation Zrotation
						JOINT LeftForeArm
						{
							OFFSET 29.972298 0.000000 0.000000
							CHANNELS 3 Xrotation Yrotation Zrotation
							JOINT LeftHand
							{
								OFFSET 26.026505 0.000000 0.000000
								CHANNELS 3 Xrotation Yrotation Zrotation
								JOINT LeftHandThumb1
								{
									OFFSET 12.240501 -7.147949 9.207150
									CHANNELS 3 Xrotation Yrotation Zrotation
									JOINT LeftHandThumb2
									{
										OFFSET 4.138618 -2.389435 2.389433
										CHANNELS 3 Xrotation Yrotation Zrotation
										JOINT LeftHandThumb3
										{
											OFFSET 2.726913 -1.574387 1.574386
											CHANNELS 3 Xrotation Yrotation Zrotation
											JOINT LeftHandThumb4
											{
												OFFSET 3.941010 -2.275345 2.275342
												CHANNELS 3 Xrotation Yrotation Zrotation
												End Site
												{
													OFFSET -0.005798 5.087799 0.009903
												}
											}
										}
									}
								}
								JOINT LeftHandIndex1
								{
									OFFSET 24.424698 -1.985611 5.953459
									CHANNELS 3 Xrotation Yrotation Zrotation
									JOINT LeftHandIndex2
									{
										OFFSET 6.426697 0.000000 0.000000
										CHANNELS 3 Xrotation Yrotation Zrotation
										JOINT LeftHandIndex3
										{
											OFFSET 5.337898 0.000000 0.000000
											CHANNELS 3 Xrotation Yrotation Zrotation
											JOINT LeftHandIndex4
											{
												OFFSET 4.409401 0.000000 0.000000
												CHANNELS 3 Xrotation Yrotation Zrotation
												End Site
												{
													OFFSET 0.000000 4.409363 0.014373
												}
											}
										}
									}
								}
								JOINT LeftHandMiddle1
								{
									OFFSET 23.810104 0.000000 0.000000
									CHANNELS 3 Xrotation Yrotation Zrotation
									JOINT LeftHandMiddle2
									{
										OFFSET 7.176498 0.000000 0.000000
										CHANNELS 3 Xrotation Yrotation Zrotation
										JOINT LeftHandMiddle3
										{
											OFFSET 6.774902 0.000000 0.000000
											CHANNELS 3 Xrotation Yrotation Zrotation
											JOINT LeftHandMiddle4
											{
												OFFSET 5.403328 0.000000 0.000000
												CHANNELS 3 Xrotation Yrotation Zrotation
												End Site
												{
													OFFSET -0.027702 5.403244 0.017414
												}
											}
										}
									}
								}
								JOINT LeftHandRing1
								{
									OFFSET 22.908401 -0.839279 -6.020567
									CHANNELS 3 Xrotation Yrotation Zrotation
									JOINT LeftHandRing2
									{
										OFFSET 6.337502 0.000000 0.000000
										CHANNELS 3 Xrotation Yrotation Zrotation
										JOINT LeftHandRing3
										{
											OFFSET 5.779297 0.000000 0.000000
											CHANNELS 3 Xrotation Yrotation Zrotation
											JOINT LeftHandRing4
											{
												OFFSET 4.965698 0.000000 0.000000
												CHANNELS 3 Xrotation Yrotation Zrotation
												End Site
												{
													OFFSET 0.000000 4.965668 0.016186
												}
											}
										}
									}
								}
								JOINT LeftHandPinky1
								{
									OFFSET 20.037003 -1.530319 -10.950146
									CHANNELS 3 Xrotation Yrotation Zrotation
									JOINT LeftHandPinky2
									{
										OFFSET 5.254700 0.000000 0.000000
										CHANNELS 3 Xrotation Yrotation Zrotation
										JOINT LeftHandPinky3
										{
											OFFSET 4.810204 0.000000 0.000000
											CHANNELS 3 Xrotation Yrotation Zrotation
											JOINT LeftHandPinky4
											{
												OFFSET 3.647202 0.000000 0.000000
												CHANNELS 3 Xrotation Yrotation Zrotation
												End Site
												{
													OFFSET 0.000000 3.647186 0.011889
												}
											}
										}
									}
								}
							}
						}
					}
				}
				JOINT RightShoulder
				{
					OFFSET -15.141001 14.495407 -7.737500
					CHANNELS 3 Xrotation Yrotation Zrotation
					JOINT RightArm
					{
						OFFSET -9.308998 -2.777710 0.208500
						CHANNELS 3 Xrotation Yrotation Zrotation
						JOINT RightForeArm
						{
							OFFSET -29.972300 0.000000 0.000000
							CHANNELS 3 Xrotation Yrotation Zrotation
							JOINT RightHand
							{
								OFFSET -26.026505 0.000000 0.000000
								CHANNELS 3 Xrotation Yrotation Zrotation
								JOINT RightHandThumb1
								{
									OFFSET -12.240601 -7.148026 9.207092
									CHANNELS 3 Xrotation Yrotation Zrotation
									JOINT RightHandThumb2
									{
										OFFSET -4.138618 -2.389435 2.389433
										CHANNELS 3 Xrotation Yrotation Zrotation
										JOINT RightHandThumb3
										{
											OFFSET -2.726974 -1.574417 1.574421
											CHANNELS 3 Xrotation Yrotation Zrotation
											JOINT RightHandThumb4
											{
												OFFSET -3.941010 -2.275345 2.275343
												CHANNELS 3 Xrotation Yrotation Zrotation
												End Site
												{
													OFFSET 0.005814 5.087799 0.009927
												}
											}
										}
									}
								}
								JOINT RightHandIndex1
								{
									OFFSET -24.424698 -1.985657 5.953444
									CHANNELS 3 Xrotation Yrotation Zrotation
									JOINT RightHandIndex2
									{
										OFFSET -6.426697 0.000000 0.000000
										CHANNELS 3 Xrotation Yrotation Zrotation
										JOINT RightHandIndex3
										{
											OFFSET -5.337898 0.000000 0.000000
											CHANNELS 3 Xrotation Yrotation Zrotation
											JOINT RightHandIndex4
											{
												OFFSET -4.409401 0.000000 0.000000
												CHANNELS 3 Xrotation Yrotation Zrotation
												End Site
												{
													OFFSET 0.000000 4.409363 0.014408
												}
											}
										}
									}
								}
								JOINT RightHandMiddle1
								{
									OFFSET -23.810097 0.000000 0.000000
									CHANNELS 3 Xrotation Yrotation Zrotation
									JOINT RightHandMiddle2
									{
										OFFSET -7.176498 0.000000 0.000000
										CHANNELS 3 Xrotation Yrotation Zrotation
										JOINT RightHandMiddle3
										{
											OFFSET -6.774902 0.000000 0.000000
											CHANNELS 3 Xrotation Yrotation Zrotation
											JOINT RightHandMiddle4
											{
												OFFSET -5.403328 0.000000 0.000000
												CHANNELS 3 Xrotation Yrotation Zrotation
												End Site
												{
													OFFSET 0.027702 5.403244 0.017457
												}
											}
										}
									}
								}
								JOINT RightHandRing1
								{
									OFFSET -22.908302 -0.839325 -6.020576
									CHANNELS 3 Xrotation Yrotation Zrotation
									JOINT RightHandRing2
									{
										OFFSET -6.337502 0.000000 0.000000
										CHANNELS 3 Xrotation Yrotation Zrotation
										JOINT RightHandRing3
										{
											OFFSET -5.779297 0.000000 0.000000
											CHANNELS 3 Xrotation Yrotation Zrotation
											JOINT RightHandRing4
											{
												OFFSET -4.965698 0.000000 0.000000
												CHANNELS 3 Xrotation Yrotation Zrotation
												End Site
												{
													OFFSET 0.000000 4.965668 0.016226
												}
											}
										}
									}
								}
								JOINT RightHandPinky1
								{
									OFFSET -20.037003 -1.530334 -10.950259
									CHANNELS 3 Xrotation Yrotation Zrotation
									JOINT RightHandPinky2
									{
										OFFSET -5.254700 0.000000 0.000000
										CHANNELS 3 Xrotation Yrotation Zrotation
										JOINT RightHandPinky3
										{
											OFFSET -4.810204 0.000000 0.000000
											CHANNELS 3 Xrotation Yrotation Zrotation
											JOINT RightHandPinky4
											{
												OFFSET -3.647202 0.000000 0.000000
												CHANNELS 3 Xrotation Yrotation Zrotation
												End Site
												{
													OFFSET 0.000000 3.647186 0.011917
												}
											}
										}
									}
								}
							}
						}
					}
				}
			}
		}
	}
	JOINT LeftUpLeg
	{
		OFFSET 15.427100 -6.655098 0.678600
		CHANNELS 3 Xrotation Yrotation Zrotation
		JOINT LeftLeg
		{
			OFFSET 4.081073 -39.591068 13.024000
			CHANNELS 3 Xrotation Yrotation Zrotation
			JOINT LeftFoot
			{
				OFFSET -4.081074 -37.707932 -15.979700
				CHANNELS 3 Xrotation Yrotation Zrotation
				JOINT LeftToeBase
				{
					OFFSET 5.346399 -15.068900 20.645000
					CHANNELS 3 Xrotation Yrotation Zrotation
					JOINT LeftToe_End
					{
						OFFSET 2.754700 0.931300 11.300900
						CHANNELS 3 Xrotation Yrotation Zrotation
						End Site
						{
							OFFSET 0.000000 11.669021 0.000000
						}
					}
				}
			}
		}
	}
	JOINT RightUpLeg
	{
		OFFSET -15.569500 -6.655098 0.678600
		CHANNELS 3 Xrotation Yrotation Zrotation
		JOINT RightLeg
		{
			OFFSET -4.081825 -39.591045 13.023800
			CHANNELS 3 Xrotation Yrotation Zrotation
			JOINT RightFoot
			{
				OFFSET 4.081824 -37.707954 -15.979600
				CHANNELS 3 Xrotation Yrotation Zrotation
				JOINT RightToeBase
				{
					OFFSET -5.346400 -15.068900 20.645000
					CHANNELS 3 Xrotation Yrotation Zrotation
					JOINT RightToe_End
					{
						OFFSET -2.754700 0.931300 11.300900
						CHANNELS 3 Xrotation Yrotation Zrotation
						End Site
						{
							OFFSET 0.000000 11.669021 0.000000
						}
					}
				}
			}
		}
	}
}
MOTION
Frames: 4
Frame Time: 0.033333
-1.984323 159.503036 11.659920 -23.074828 -5.180734 -2.505739 7.701522 -1.335344 0.371986 15.374076 -1.676405 -0.551058 15.374078 -1.676405 -0.551059 -11.803038 2.538408 0.513533 -20.543595 1.060037 1.922753 -0.000001 0.000000 -0.000000 -0.117975 -1.799429 36.289430 -52.783166 -25.523783 -11.661735 -14.597011 -27.801850 2.189081 12.412372 -2.032490 43.220491 -11.360222 -10.014973 28.397703 19.621786 23.756158 -10.341818 0.000005 0.000002 -0.000005 -0.000000 0.000000 -0.000001 -7.847123 -3.445126 -67.091247 -4.889590 2.724616 -36.316693 0.000000 0.000000 -0.000002 -0.000000 0.000000 0.000000 -10.129871 -3.870975 -67.774287 -1.770450 1.712463 -28.157877 0.000000 0.000008 0.000002 0.000001 0.000001 0.000000 -15.177549 7.295028 -70.201675 7.766499 -0.421205 -31.520056 -0.000000 -0.000004 0.000001 0.000001 -0.000000 -0.000002 -16.482297 5.435911 -74.872814 8.342343 -0.186012 -18.883183 0.000001 0.000001 0.000000 0.000001 0.000000 0.000000 9.813677 24.196311 -37.946076 -46.242163 23.161120 -4.673603 -22.075474 26.224617 3.020074 0.654820 10.543965 -45.154667 15.333607 1.500739 -10.491469 -10.396548 -3.068569 -10.223860 -0.000000 -0.000005 -0.000005 0.000001 -0.000000 -0.000000 0.919928 3.496477 64.452179 1.727843 9.561670 38.866263 -0.000000 0.000001 0.000001 -0.000000 -0.000001 0.000001 -6.652352 -3.924291 64.485715 9.406058 5.988797 38.253622 -0.000004 0.000001 -0.000002 -0.000001 -0.000000 -0.000000 -5.546271 1.390193 64.784754 0.234149 -1.791481 39.151785 0.000002 0.000010 -0.000002 0.000000 -0.000000 0.000000 -17.806330 -16.572267 61.043279 25.329512 3.861596 27.748029 -0.000001 0.000000 0.000000 -0.000000 -0.000001 -0.000000 -91.535313 19.296341 27.784284 122.388630 -11.597055 6.406482 -31.133741 -4.782589 13.572570 -46.492322 -2.666934 -1.954491 -0.000004 -0.000001 -0.000000 -128.082426 -24.202763 -12.904917 125.246463 -10.769792 -18.600364 -9.762342 -6.622954 13.552394 -38.850181 6.007504 10.674976 0.000002 -0.000001 0.000001 
-1.868676 159.526566 11.601070 -20.904858 -4.924450 -2.545956 7.254457 -1.368704 0.519529 14.482264 -1.843357 -0.191794 14.482264 -1.843356 -0.191794 -11.346666 1.743717 0.940711 -19.997069 1.180404 1.147123 -0.000002 -0.000000 -0.000000 -0.030067 -2.573626 35.435301 -52.411375 -24.552466 -11.181256 -14.456049 -29.887938 2.322820 12.894521 -0.881129 42.747453 -11.442642 -10.037635 28.505100 19.609801 23.743478 -10.331779 0.000005 0.000004 -0.000006 -0.000000 -0.000003 -0.000001 -7.850426 -3.450202 -67.098877 -4.894920 2.715160 -36.396965 0.000001 0.000000 -0.000001 0.000000 -0.000000 0.000001 -10.124010 -3.872814 -67.801136 -1.771868 1.706830 -28.195292 -0.000000 0.000009 0.000001 0.000000 0.000001 0.000000 -15.172922 7.296233 -70.249664 7.762051 -0.419391 -31.497134 -0.000000 -0.000004 0.000001 -0.000000 -0.000000 0.000000 -16.469550 5.434396 -74.924450 8.340830 -0.187482 -18.807624 0.000001 0.000000 -0.000000 0.000001 0.000001 0.000000 9.945478 24.774303 -37.719170 -46.174316 23.391351 -5.254011 -22.113813 26.125547 2.950125 1.159552 10.646944 -44.685270 15.345159 1.506909 -10.465780 -10.396565 -3.068277 -10.223680 -0.000001 -0.000005 -0.000005 0.000000 0.000000 -0.000003 0.920653 3.495134 64.414517 1.727512 9.562185 38.871969 0.000001 0.000001 0.000004 -0.000000 0.000001 0.000001 -6.653441 -3.922621 64.442903 9.405301 5.989310 38.261583 -0.000003 0.000003 0.000001 -0.000000 0.000002 0.000001 -5.532548 1.387544 64.725017 0.233870 -1.791083 39.156532 0.000002 0.000011 -0.000004 0.000001 0.000001 -0.000000 -17.793585 -16.565096 60.990905 25.329459 3.860713 27.741606 -0.000001 0.000001 0.000000 0.000000 -0.000001 0.000000 -93.797396 18.497163 27.132298 122.002123 -11.697593 5.862345 -30.767946 -4.478857 13.524305 -46.168694 -2.769058 -2.149727 -0.000001 0.000000 -0.000000 -128.615604 -22.358247 -13.593594 124.974171 -8.784482 -17.357001 -11.282564 -6.417352 13.049219 -38.126632 5.251710 10.676747 -0.000000 0.000000 0.000001 
-1.581154 159.442825 11.377947 -18.347439 -4.813800 -2.570440 6.845555 -1.408510 0.623721 13.668668 -1.954163 0.137774 13.668675 -1.954164 0.137774 -10.345968 0.597352 1.891052 -18.860457 1.275011 -0.083439 0.000001 0.000001 0.000000 0.123323 -3.931037 34.164009 -52.322220 -23.875956 -9.277408 -14.451816 -31.661140 2.482873 13.640680 0.310647 41.590794 -11.458113 -10.048492 28.578376 19.621991 23.757049 -10.342226 0.000005 0.000001 -0.000008 0.000000 -0.000001 0.000001 -7.851735 -3.447131 -67.147364 -4.897276 2.713607 -36.433899 0.000001 0.000001 -0.000002 -0.000000 0.000000 0.000001 -10.137867 -3.871788 -67.849125 -1.772924 1.707743 -28.208591 0.000001 0.000008 0.000000 -0.000001 -0.000000 -0.000000 -15.186321 7.295154 -70.290740 7.767102 -0.420571 -31.505439 -0.000000 -0.000003 0.000004 -0.000000 -0.000000 0.000001 -16.490577 5.437652 -74.966879 8.343195 -0.181571 -18.770917 0.000000 -0.000000 0.000001 -0.000001 -0.000000 0.000000 10.066892 25.334461 -37.490529 -46.356125 24.212607 -6.576601 -22.733246 24.215070 2.688245 2.091427 11.801898 -43.777872 15.337583 1.489112 -10.484011 -10.397283 -3.068040 -10.223740 0.000000 -0.000005 -0.000004 -0.000000 -0.000000 -0.000002 0.919452 3.495364 64.413349 1.723649 9.568292 38.934008 -0.000001 0.000000 0.000001 -0.000000 -0.000003 -0.000001 -6.674787 -3.925212 64.475736 9.409272 5.985998 38.211234 -0.000003 0.000000 -0.000001 -0.000000 -0.000001 -0.000000 -5.568743 1.455536 64.734231 0.234770 -1.792413 39.139105 0.000001 0.000010 -0.000003 0.000000 -0.000001 -0.000002 -17.820594 -16.565244 61.134359 25.330755 3.862461 27.779023 -0.000000 -0.000000 0.000000 0.000001 -0.000002 0.000000 -96.042507 17.138299 26.438933 121.283628 -12.155606 4.664183 -30.765597 -4.149133 13.348262 -45.381208 -3.063363 -2.228427 -0.000002 0.000000 -0.000000 -129.318034 -18.648530 -14.952225 124.171979 -5.816001 -15.007874 -12.547598 -5.695859 12.007409 -36.904007 4.411656 11.434907 0.000000 0.000000 0.000001 
-1.021041 159.548096 10.680149 -15.486875 -5.059297 -2.517054 6.544679 -1.403161 0.690323 13.072442 -1.954031 0.417310 13.072448 -1.954028 0.417308 -8.758499 -0.945855 3.242830 -16.950982 1.147284 -1.624033 -0.000000 -0.000000 -0.000000 0.247358 -5.379255 32.725984 -52.372507 -23.064087 -6.409736 -14.844042 -33.801107 2.676399 14.329706 1.974148 39.349830 -11.227186 -9.986166 28.268123 19.652146 23.788775 -10.367681 0.000005 0.000004 -0.000008 -0.000000 -0.000002 -0.000002 -7.842346 -3.433836 -67.116034 -4.882150 2.739684 -36.205532 0.000000 0.000001 -0.000002 -0.000000 0.000000 0.000001 -10.150936 -3.867181 -67.765251 -1.768889 1.722964 -28.102984 0.000001 0.000009 0.000001 0.000000 -0.000001 -0.000001 -15.195948 7.291597 -70.150312 7.778269 -0.425451 -31.566600 -0.000000 -0.000003 0.000001 0.000001 0.000002 0.000002 -16.520938 5.440569 -74.816437 8.346902 -0.179092 -18.986290 0.000000 0.000001 0.000001 0.000000 0.000000 -0.000001 10.198586 25.872651 -37.334569 -46.738923 25.233968 -8.705771 -24.050098 21.344227 2.343655 3.455648 13.617508 -42.583525 15.301053 1.472961 -10.564761 -10.397197 -3.068501 -10.224200 -0.000000 -0.000005 -0.000001 0.000000 -0.000000 0.000001 0.917431 3.499808 64.538765 1.725780 9.565071 38.899720 0.000000 -0.000001 0.000001 -0.000001 -0.000001 0.000001 -6.665944 -3.930092 64.609730 9.410852 5.985097 38.197242 -0.000002 0.000001 0.000000 0.000000 -0.000002 -0.000002 -5.605577 1.447435 64.930353 0.235524 -1.793354 39.127650 0.000001 0.000010 -0.000001 0.000000 -0.000001 -0.000001 -17.856307 -16.589191 61.272780 25.330633 3.864946 27.791147 -0.000000 0.000002 0.000000 -0.000000 -0.000000 0.000000 -97.893031 15.529980 25.627141 119.669545 -12.869166 2.952308 -30.663864 -3.754796 12.989539 -44.604096 -3.328339 -2.279375 -0.000000 -0.000001 -0.000000 -129.134152 -13.491641 -16.882438 122.236071 -1.643506 -11.623952 -13.570024 -4.702698 10.881162 -35.363482 3.663959 12.638451 -0.000000 -0.000000 -0.000000 
